<svg id="magicoon-Filled" height="512" viewBox="0 0 512 512" width="512" xmlns="http://www.w3.org/2000/svg"><g id="chevron-circle-right-Filled"><path id="chevron-circle-right-Filled-2" d="m256 53.333c-111.786 0-202.667 90.881-202.667 202.667s90.881 202.667 202.667 202.667 202.667-90.881 202.667-202.667-90.881-202.667-202.667-202.667zm57.814 217.813-64 64a21.635 21.635 0 0 1 -30.294 0 21.5 21.5 0 0 1 0-30.292l49.067-48.854-49.067-48.854a21.42 21.42 0 1 1 30.294-30.292l64 64a21.5 21.5 0 0 1 0 30.292z" data-name="chevron-circle-right-Filled"/></g></svg>